<svg width="18" height="18" viewBox="0 0 18 18" fill="none" xmlns="http://www.w3.org/2000/svg">
<path d="M8.68767 16.9987H2.6846C2.23782 16.9987 1.80933 16.8302 1.49341 16.5301C1.17748 16.2301 1 15.8232 1 15.3988V4.19974C1 3.77543 1.17748 3.3685 1.49341 3.06846C1.80933 2.76843 2.23782 2.59987 2.6846 2.59987H14.4768C14.9236 2.59987 15.3521 2.76843 15.668 3.06846C15.9839 3.3685 16.1614 3.77543 16.1614 4.19974V8.29942M11.9499 1V4.19974M1 7.39949H16.1614M5.2115 1V4.19974M10.7875 14.4389C10.6103 14.2635 10.4724 14.0557 10.382 13.8283C10.2917 13.6008 10.2508 13.3583 10.2619 13.1154C10.2729 12.8725 10.3356 12.6342 10.4463 12.415C10.557 12.1958 10.7133 12.0001 10.9057 11.8398C11.0982 11.6795 11.3229 11.5579 11.5662 11.4823C11.8095 11.4068 12.0664 11.3788 12.3214 11.4001C12.5764 11.4214 12.8243 11.4916 13.0499 11.6064C13.2756 11.7211 13.4745 11.8782 13.6345 12.0679C13.7953 11.8801 13.9943 11.7251 14.2197 11.612C14.445 11.499 14.6921 11.4303 14.946 11.41C15.2 11.3897 15.4556 11.4183 15.6977 11.494C15.9398 11.5697 16.1633 11.691 16.3548 11.8507C16.5464 12.0103 16.7021 12.205 16.8126 12.4231C16.9231 12.6412 16.9861 12.8783 16.998 13.12C17.0098 13.3618 16.9701 13.6034 16.8814 13.8303C16.7926 14.0572 16.6566 14.2647 16.4815 14.4405L14.2696 16.7251C14.1907 16.8114 14.0932 16.8806 13.9837 16.928C13.8742 16.9755 13.7553 17 13.6349 17C13.5146 17 13.3956 16.9755 13.2861 16.928C13.1766 16.8806 13.0791 16.8114 13.0002 16.7251L10.7875 14.4389Z" stroke="#111827" stroke-width="2" stroke-linecap="round" stroke-linejoin="round"/>
</svg>
