<svg width="18" height="22" viewBox="0 0 18 22" fill="none" xmlns="http://www.w3.org/2000/svg">
<path d="M17 9.0001C17 13.9932 11.461 19.1932 9.601 20.7992C9.42772 20.9295 9.2168 21 9 21C8.7832 21 8.57228 20.9295 8.399 20.7992C6.539 19.1932 1 13.9932 1 9.0001C1 6.87834 1.84285 4.84348 3.34315 3.34318C4.84344 1.84287 6.87827 1 9 1C11.1217 1 13.1566 1.84287 14.6569 3.34318C16.1571 4.84348 17 6.87834 17 9.0001Z" stroke="#111827" stroke-width="2" stroke-linecap="round" stroke-linejoin="round"/>
<path d="M9 12.0001C10.6569 12.0001 12 10.657 12 9.0001C12 7.34323 10.6569 6.00006 9 6.00006C7.34315 6.00006 6 7.34323 6 9.0001C6 10.657 7.34315 12.0001 9 12.0001Z" stroke="#111827" stroke-width="2" stroke-linecap="round" stroke-linejoin="round"/>
</svg>
