<svg width="117" height="16" viewBox="0 0 117 16" fill="none" xmlns="http://www.w3.org/2000/svg">
<path fill-rule="evenodd" clip-rule="evenodd" d="M4.12826 0.152899C1.84042 0.584767 0.717049 1.83394 0.206539 4.51392C-0.141335 6.33998 -0.0298784 11.1497 0.391921 12.5157C0.928019 14.2515 1.72257 15.1219 3.26916 15.6676C3.91587 15.8957 4.51821 15.9434 6.75217 15.9434C8.37681 15.9434 9.92071 15.8607 10.6261 15.736L11.799 15.5285V11.1618V6.79499H9.09787H6.39676V8.23153V9.66806H7.46782H8.53888L8.49851 11.2936L8.45813 12.9192L6.98532 12.9624C5.73584 12.9992 5.42109 12.9586 4.90874 12.6948C3.87805 12.164 3.76674 11.6998 3.76674 7.93318C3.76674 5.02548 3.79105 4.70974 4.05106 4.24022C4.60706 3.23616 4.93831 3.09628 6.90045 3.03701C8.48258 2.98922 10.0074 3.11609 11.3423 3.40657L11.8098 3.50834L11.7688 2.01404L11.7279 0.519594L10.8749 0.321957C9.80314 0.0736623 5.16378 -0.0426216 4.12826 0.152899ZM31.1661 0.158343C29.7191 0.414802 28.6789 1.15228 28.1178 2.3198C27.7153 3.15707 27.4428 5.48865 27.4445 8.08031C27.4479 13.6958 28.2675 15.2823 31.4717 15.8759C32.7765 16.1175 36.3613 15.9855 37.3299 15.6601C38.7895 15.1697 39.62 14.2325 40.0264 12.6167C40.3228 11.4386 40.4535 7.35902 40.2594 5.33456C39.8433 0.990627 38.5934 -0.0340026 33.7633 0.00909361C32.7468 0.0183176 31.5781 0.0854569 31.1661 0.158343ZM76.6966 0.0958907C75.6006 0.250432 74.7329 0.632703 74.1251 1.22864C73.2748 2.06228 73.0197 2.98816 73.0964 4.96333C73.2095 7.88267 73.9303 8.4706 78.0398 8.99622C81.0589 9.38242 81.3325 9.5855 81.3434 11.448C81.3501 12.5998 81.1374 13.1979 80.6344 13.4416C79.7137 13.8879 75.751 13.9269 73.8112 13.5088L73.3426 13.4077L73.3847 14.5245L73.4269 15.641L74.7774 15.8337C75.599 15.951 77.0468 16.0035 78.4737 15.9676C82.2813 15.8722 83.1849 15.3384 83.7333 12.8608C83.9764 11.7621 83.8513 9.76378 83.4851 8.89959C82.9079 7.5373 81.9977 7.04646 79.5611 6.78395C75.8083 6.37975 75.6053 6.27965 75.5161 4.78883C75.4344 3.42517 75.6653 2.7497 76.3212 2.43306C76.9976 2.10643 80.9975 2.07619 82.1421 2.38905C82.5568 2.50231 82.9209 2.5687 82.9511 2.53649C83.0525 2.42882 83.1294 0.627259 83.0393 0.472264C82.8297 0.111617 78.434 -0.149228 76.6966 0.0958907ZM14.7844 8.0047V15.8678H20.0445H25.3045V14.3557V12.8436H21.8215H18.3385V11.1046V9.36563H21.3291H24.3196L24.279 7.89129L24.2383 6.41695L21.2884 6.37612L18.3385 6.33514V4.75057V3.16584H21.7505H25.1624V1.6537V0.141557H19.9734H14.7844V8.0047ZM43.1082 6.22793C43.1655 12.7537 43.2039 13.1253 43.9402 14.2682C44.7107 15.4641 45.7971 15.8861 48.3551 15.9832C51.4515 16.1007 53.3493 15.4667 53.9957 14.099C54.6067 12.8059 54.6613 12.1442 54.6613 6.03892V0.217165L53.4885 0.173313L52.3156 0.129309L52.3122 5.76824C52.3101 9.10721 52.2485 11.6845 52.1614 12.0875C51.8756 13.4068 51.1971 13.7666 48.9849 13.7714C46.6838 13.7764 45.9073 13.3184 45.6359 11.7961C45.5553 11.3441 45.4918 8.59716 45.4918 5.56471V0.141557H44.2733H43.0549L43.1082 6.22793ZM58.2865 8.0047V15.8678H59.4221H60.5577L60.5949 10.1616L60.6322 4.4554L61.3365 5.663C61.7239 6.32713 62.9108 8.26555 63.9742 9.97049C65.0375 11.6754 66.2803 13.6997 66.7358 14.4691L67.5641 15.8678H68.754H69.9439V8.0047V0.141557H68.8066H67.6693L67.6641 5.62308L67.659 11.1046L67.3102 10.651C66.9337 10.1616 63.5497 4.81045 61.7875 1.91832L60.705 0.141557H59.4957H58.2865V8.0047ZM90.6998 0.195844C90.6998 0.231077 90.1516 1.84937 89.4817 3.79202C88.8117 5.73482 87.7305 8.88931 87.0791 10.8022C86.4277 12.715 85.7613 14.6373 85.5982 15.074L85.3017 15.8678H86.56H87.8182L88.4564 13.9399L89.0947 12.0119L92.2785 11.9739L95.4622 11.936L96.1532 13.9019L96.8441 15.8678H98.1066H99.3693L99.0358 14.9228C98.8523 14.403 98.3096 12.8549 97.8297 11.4826C97.3497 10.1104 96.2652 7.01425 95.4194 4.60238L93.8818 0.217165L92.2907 0.174371C91.4157 0.150933 90.6998 0.16046 90.6998 0.195844ZM101.504 8.0047V15.8678H102.64H103.776L103.813 9.93269L103.85 3.99752L104.187 4.98041C104.372 5.52101 104.634 6.2355 104.769 6.56817C105.257 7.76866 106.204 10.2511 107.22 12.9948L108.257 15.7922H109.245H110.233L110.557 14.9606C110.735 14.5031 111.687 11.9514 112.672 9.29003C113.658 6.62865 114.523 4.3866 114.595 4.30751C114.674 4.22026 114.725 6.46398 114.725 10.0159V15.8678H115.863H117V7.99971V0.131577L115.402 0.174371L113.804 0.217165L111.607 6.07672C110.399 9.29955 109.368 11.9363 109.316 11.9363C109.264 11.9363 108.663 10.4563 107.98 8.64737C107.297 6.83839 106.283 4.18457 105.727 2.75L104.714 0.141557H103.109H101.504V8.0047ZM93.454 5.888C94.0382 7.5928 94.5599 9.17465 94.6137 9.40344L94.7112 9.81928H92.3584C91.0644 9.81928 89.9756 9.76741 89.9388 9.70405C89.8344 9.52441 92.1632 2.54495 92.2845 2.67394C92.3436 2.73685 92.87 4.18321 93.454 5.888ZM35.6066 3.2295C36.5311 3.64035 36.6065 4.001 36.6065 8.0047C36.6065 12.7382 36.5603 12.833 34.1946 12.9558C32.5717 13.04 31.9019 12.8245 31.4959 12.0875C31.2238 11.5936 31.2043 11.3155 31.2043 7.9291C31.2043 4.57909 31.2257 4.26638 31.4818 3.864C31.6345 3.62417 31.9544 3.33762 32.1926 3.22723C32.7842 2.95308 34.988 2.95459 35.6066 3.2295Z" fill="#00205B"/>
</svg>
