<svg width="820" height="680" viewBox="0 0 820 680" fill="none" xmlns="http://www.w3.org/2000/svg">
<path fill-rule="evenodd" clip-rule="evenodd" d="M395.588 0.2684C368.076 3.63023 353.406 7.56142 332.788 17.0991C287.552 38.0261 254.078 75.6567 239.187 122.324C226.877 160.907 227.414 196.566 240.883 235.105C247.803 254.902 256.919 273.094 273.083 299.363C286.239 320.741 332.017 395.918 343.59 415.148C356.093 435.924 356.281 436.235 382.288 479.266C392.176 495.629 402.421 512.626 405.051 517.037C408.916 523.517 410.069 524.798 411.053 523.705C411.724 522.962 418.466 511.966 426.035 499.271C433.604 486.575 446.526 465.109 454.751 451.567C480.15 409.747 489.344 394.529 495.969 383.346C499.479 377.421 508.285 362.879 515.538 351.03C562.496 274.316 566.05 268.076 574.826 246.903C583.81 225.227 588.385 205.591 589.553 183.692C592.238 133.332 569.614 78.8985 532.578 46.6118C505.564 23.0626 472.607 7.29264 439.973 2.30376C429.255 0.664394 402.418 -0.565645 395.588 0.2684ZM70.6208 267.824C70.6208 478.98 70.874 532.992 71.8669 533.328C72.5527 533.56 80.963 533.85 90.5575 533.973C117.677 534.32 145.917 537.231 176.784 542.861C236.66 553.783 296.509 579.113 342.797 613.124C358.046 624.328 357.239 624.622 338.028 614.866C291.799 591.387 227.079 572.574 166.317 564.951C132.275 560.68 104.964 559.653 65.8699 561.175L43.6735 562.039L43.7373 463.716C43.7722 409.638 43.7791 300.193 43.7532 220.506L43.7064 75.6187L39.4698 76.1204C17.2674 78.7456 1.30908 80.9133 0.872468 81.3616C0.0879605 82.17 -0.375563 588.973 0.394989 603.769L1.05588 616.449L5.18576 615.766C13.3468 614.416 32.5697 612.138 50.1858 610.431C72.6205 608.258 140.375 607.931 162.329 609.89C227.732 615.726 283.444 629.143 334.895 651.448C349.205 657.651 350.923 658.635 356.741 663.952C368.829 675.002 385.311 679.916 410.56 679.999C434.018 680.076 451.586 674.854 462.513 664.556C467.687 659.679 471.058 657.621 480.817 653.383C529.341 632.302 579.1 618.767 630.342 612.71C661.097 609.074 670.166 608.606 709.59 608.608C752.306 608.611 766.496 609.435 799.142 613.806C809.743 615.226 818.715 616.08 819.079 615.706C820.004 614.754 820.397 83.5478 819.473 82.0705C818.829 81.0405 803.934 78.6615 782.11 76.104L776.378 75.432V318.58C776.378 452.312 776.042 561.905 775.631 562.122C775.219 562.338 769.724 562.134 763.419 561.668C734.021 559.494 690.971 560.643 658.254 564.475C595.447 571.831 526.107 591.971 478.312 616.742C461.844 625.276 462.898 623.243 481.695 610.219C498.79 598.373 509.11 592.186 528.053 582.431C574.171 558.679 619.7 544.946 676.197 537.747C690.471 535.928 729.599 533.181 741.738 533.147L749.464 533.125V267.81V2.49458L736.754 3.20244C694.224 5.57018 648.074 13.0992 606.418 24.466C590.778 28.7337 559.118 39.2131 557.816 40.5529C557.4 40.9807 559.867 44.5426 563.297 48.4676C566.728 52.3927 571.256 58.0217 573.358 60.9752C575.462 63.9298 577.389 66.3468 577.642 66.3468C577.895 66.3468 584.024 64.4715 591.263 62.1796C630.554 49.7397 666.95 42.3103 713.329 37.2619L718.562 36.6925V269.52V502.348L716.319 502.364C710.897 502.403 683.369 504.48 675.2 505.468C598.463 514.744 528.287 540.182 469.638 579.981C453.616 590.854 433.695 607.054 421.007 619.532L410.042 630.315L399.009 619.422C374.02 594.746 342.682 572.564 306.259 553.769C286.844 543.75 281.602 541.341 266.997 535.73C226.972 520.35 190.697 511.298 147.875 506.005C136.37 504.582 109.797 502.385 103.766 502.359L101.523 502.348V269.41V36.4699L105.759 37.0351C108.09 37.346 114.481 38.0949 119.964 38.7001C136.415 40.516 155.85 43.7106 173.783 47.5464C190.664 51.1575 224.32 60.2653 235.504 64.2488C238.742 65.403 241.882 66.3345 242.482 66.3201C243.081 66.3057 245.122 63.9421 247.018 61.0665C248.913 58.192 253.524 52.4686 257.263 48.3476C261.002 44.2276 263.71 40.6319 263.281 40.359C259.644 38.0467 217.646 25.0312 199.711 20.6589C164.398 12.0517 127.507 6.24316 92.5322 3.78617C84.5924 3.22911 76.4154 2.76541 74.359 2.7572L70.6208 2.74182V267.824ZM434.328 88.8444C471.354 99.9179 497.359 129.43 503.259 167.071C505.175 179.289 504.095 198.181 500.838 209.458C490.556 245.053 463.298 270.994 428.565 278.236C417.058 280.637 395.286 279.871 384.623 276.691C359.644 269.242 337.578 250.35 325.865 226.385C317.917 210.125 315.441 198.405 316.091 180.139C316.699 163.075 318.956 153.711 325.904 139.424C339.597 111.269 364.063 92.4504 394.252 86.8522C402.964 85.2364 426.113 86.3874 434.328 88.8444ZM394.512 135.707C376.368 141.975 364.317 157.316 361.452 177.788C359.538 191.463 364.76 206.913 374.802 217.283C385.295 228.12 395.646 232.623 410.042 232.614C420.578 232.608 426.694 230.947 434.963 225.845C443.291 220.709 448.753 214.891 452.929 206.712C459.845 193.168 460.818 179.728 455.863 166.18C446.187 139.726 420.215 126.826 394.512 135.707Z" fill="#00205B"/>
</svg>
