<svg width="147" height="20" viewBox="0 0 147 20" fill="none" xmlns="http://www.w3.org/2000/svg">
<path fill-rule="evenodd" clip-rule="evenodd" d="M5.18679 0.191124C2.31232 0.730959 0.900907 2.29243 0.259498 5.6424C-0.177574 7.92498 -0.0375395 13.9371 0.492413 15.6447C1.16597 17.8144 2.16425 18.9024 4.10741 19.5845C4.91993 19.8696 5.67673 19.9293 8.4835 19.9293C10.5247 19.9293 12.4645 19.8259 13.3508 19.67L14.8244 19.4106V13.9522V8.49373H11.4307H8.03696V10.2894V12.0851H9.38265H10.7283L10.6776 14.117L10.6269 16.149L8.77643 16.203C7.20657 16.249 6.81112 16.1983 6.16739 15.8685C4.87242 15.205 4.73257 14.6247 4.73257 9.91647C4.73257 6.28185 4.76311 5.88718 5.0898 5.30027C5.78836 4.04519 6.20454 3.87035 8.66979 3.79626C10.6576 3.73653 12.5734 3.89511 14.2506 4.25822L14.8379 4.38543L14.7865 2.51755L14.735 0.649493L13.6634 0.402446C12.3168 0.0920778 6.48782 -0.0532771 5.18679 0.191124ZM39.1574 0.197928C37.3394 0.518503 36.0325 1.44034 35.3275 2.89974C34.8218 3.94634 34.4794 6.86081 34.4816 10.1004C34.4859 17.1198 35.5156 19.1029 39.5414 19.8448C41.1807 20.1469 45.6847 19.9819 46.9016 19.5751C48.7355 18.9621 49.7789 17.7906 50.2896 15.7709C50.662 14.2983 50.8262 9.19877 50.5824 6.6682C50.0596 1.23828 48.4892 -0.0425032 42.4205 0.011367C41.1434 0.0228971 39.675 0.106821 39.1574 0.197928ZM96.3624 0.119863C94.9853 0.31304 93.8952 0.790878 93.1315 1.5358C92.0632 2.57785 91.7427 3.7352 91.839 6.20416C91.9812 9.85334 92.8868 10.5882 98.05 11.2453C101.843 11.728 102.187 11.9819 102.201 14.31C102.209 15.7498 101.942 16.4973 101.31 16.802C100.153 17.3598 95.1743 17.4086 92.7371 16.8859L92.1484 16.7597L92.2012 18.1556L92.2543 19.5513L93.9511 19.7921C94.9834 19.9388 96.8024 20.0043 98.5952 19.9596C103.379 19.8403 104.514 19.173 105.203 16.076C105.509 14.7026 105.352 12.2047 104.892 11.1245C104.166 9.42162 103.023 8.80807 99.9614 8.47994C95.2463 7.97469 94.9912 7.84956 94.8792 5.98603C94.7765 4.28147 95.0666 3.43712 95.8907 3.04132C96.7406 2.63304 101.766 2.59524 103.204 2.98632C103.725 3.12789 104.183 3.21087 104.221 3.17061C104.348 3.03603 104.445 0.784073 104.331 0.59033C104.068 0.139521 98.5453 -0.186535 96.3624 0.119863ZM18.5753 10.0059V19.8348H25.1841H31.7929V17.9446V16.0545H27.4168H23.0407V13.8807V11.707H26.7981H30.5554L30.5043 9.86412L30.4533 8.02119L26.747 7.97015L23.0407 7.91893V5.93821V3.9573H27.3275H31.6143V2.06712V0.176947H25.0948H18.5753V10.0059ZM54.1616 7.78492C54.2336 15.9422 54.2818 16.4066 55.2069 17.8352C56.175 19.3301 57.54 19.8577 60.7538 19.979C64.6442 20.1259 67.0286 19.3333 67.8407 17.6237C68.6084 16.0074 68.677 15.1802 68.677 7.54864V0.271456L67.2034 0.216641L65.7299 0.161636L65.7256 7.2103C65.7229 11.384 65.6456 14.6056 65.5361 15.1094C65.1771 16.7585 64.3245 17.2082 61.5451 17.2143C58.654 17.2205 57.6784 16.648 57.3374 14.7451C57.2362 14.1802 57.1563 10.7465 57.1563 6.95588V0.176947H55.6254H54.0947L54.1616 7.78492ZM73.2317 10.0059V19.8348H74.6585H76.0853L76.1321 12.702L76.1789 5.56925L77.0637 7.07875C77.5505 7.90891 79.0417 10.3319 80.3778 12.4631C81.7138 14.5943 83.2753 17.1247 83.8476 18.0864L84.8882 19.8348H86.3832H87.8782V10.0059V0.176947H86.4493H85.0204L85.0139 7.02884L85.0075 13.8807L84.5692 13.3137C84.0962 12.702 79.8444 6.01306 77.6305 2.3979L76.2703 0.176947H74.751H73.2317V10.0059ZM113.956 0.244805C113.956 0.288846 113.267 2.31171 112.426 4.74003C111.584 7.16853 110.226 11.1116 109.407 13.5027C108.589 15.8938 107.751 18.2966 107.546 18.8425L107.174 19.8348H108.755H110.336L111.138 17.4248L111.94 15.0149L115.94 14.9674L119.94 14.92L120.808 17.3774L121.676 19.8348H123.262H124.849L124.43 18.6535C124.199 18.0038 123.517 16.0686 122.914 14.3533C122.311 12.638 120.949 8.76781 119.886 5.75297L117.954 0.271456L115.955 0.217964C114.856 0.188666 113.956 0.200575 113.956 0.244805ZM127.531 10.0059V19.8348H128.958H130.385L130.431 12.4159L130.478 4.9969L130.901 6.22552C131.134 6.90126 131.463 7.79437 131.633 8.21021C132.246 9.71082 133.436 12.8139 134.713 16.2435L136.015 19.7403H137.257H138.498L138.905 18.7007C139.128 18.1289 140.324 14.9393 141.563 11.6125C142.801 8.28582 143.888 5.48324 143.978 5.38439C144.078 5.27532 144.142 8.07997 144.142 12.5198V19.8348H145.571H147V9.99964V0.164472L144.992 0.217964L142.984 0.271456L140.224 7.5959C138.706 11.6244 137.411 14.9203 137.345 14.9203C137.28 14.9203 136.525 13.0704 135.667 10.8092C134.809 8.54798 133.535 5.23072 132.836 3.4375L131.564 0.176947H129.547H127.531V10.0059ZM117.417 7.36C118.151 9.49099 118.806 11.4683 118.874 11.7543L118.996 12.2741H116.04C114.414 12.2741 113.046 12.2093 113 12.1301C112.869 11.9055 115.795 3.18119 115.947 3.34243C116.021 3.42106 116.683 5.22901 117.417 7.36ZM44.7364 4.03688C45.898 4.55044 45.9928 5.00125 45.9928 10.0059C45.9928 15.9227 45.9348 16.0412 42.9624 16.1947C40.9234 16.3 40.0819 16.0306 39.5718 15.1094C39.2299 14.492 39.2054 14.1444 39.2054 9.91137C39.2054 5.72386 39.2322 5.33297 39.5541 4.83C39.7459 4.53021 40.1478 4.17203 40.4472 4.03404C41.1904 3.69135 43.9593 3.69324 44.7364 4.03688Z" fill="#EFEFEF"/>
</svg>
