<svg preserveAspectRatio="none" width="100%" height="100%" overflow="visible" style="display: block;" viewBox="0 0 100 100" fill="none" xmlns="http://www.w3.org/2000/svg">
<path id="imagotipo (Traced)" fill-rule="evenodd" clip-rule="evenodd" d="M47.5696 0.125675C41.5759 0.74533 35.713 3.95375 32.2958 8.48415C30.7642 10.5146 29.6386 12.7216 28.9439 15.0567C28.3051 17.2032 28.142 18.3709 28.1447 20.7808C28.1468 22.6556 28.1905 23.1549 28.467 24.4589C29.0119 27.0294 30.0054 29.574 31.4848 32.1889C31.8349 32.8076 32.9111 34.561 33.8762 36.0854C36.8319 40.7533 46.4472 56.0426 47.9348 58.4397C49.3273 60.6836 49.9725 61.6935 50.0138 61.6935C50.0759 61.6935 50.3194 61.3106 53.6165 56.0296C55.251 53.4115 56.9139 50.7543 57.3118 50.1247C57.7096 49.495 58.4754 48.2749 59.0133 47.4132C60.4434 45.1222 63.9439 39.5612 66.2196 35.9649C69.703 30.4601 70.8418 27.9681 71.5884 24.2153C71.978 22.2575 71.9775 18.8264 71.5873 17.0198C70.154 10.3823 66.1688 5.29561 60.0908 2.34592C56.1418 0.429357 51.9025 -0.322255 47.5696 0.125675ZM8.62651 31.5519V62.778L10.9048 62.7795C17.7259 62.784 25.4565 64.2126 31.5914 66.6026C33.7278 67.4349 36.9256 69.0021 38.8818 70.1757C40.6374 71.2288 43.4224 73.1376 43.333 73.2263C43.3071 73.2519 42.5274 72.9015 41.6003 72.4474C34.467 68.9541 25.9674 66.7771 16.5245 66.0246C14.6056 65.8716 9.32858 65.8596 6.95712 66.0026C5.95068 66.0632 5.45432 66.0514 5.42115 65.9657C5.39429 65.8962 5.36453 53.0466 5.35505 37.4113C5.34569 21.7759 5.32212 8.96763 5.3028 8.94834C5.26659 8.91243 1.38893 9.33409 0.580298 9.46183C0.18953 9.52353 0.118813 9.58499 0.0590315 9.91494C-0.0290612 10.4018 0.0376463 72.2558 0.126468 72.3439C0.16292 72.3799 1.01918 72.3055 2.02927 72.1783C6.31022 71.6395 8.15871 71.5332 13.3045 71.5301C18.1752 71.5272 19.3476 71.5843 23.0859 72.0062C28.6356 72.6328 34.8331 74.1592 39.6629 76.0892C42.4281 77.1941 42.7337 77.3481 43.5009 78.0239C44.7072 79.0866 46.3221 79.6543 48.7971 79.8857C50.86 80.0787 52.9306 79.8233 54.6708 79.1612C55.4605 78.8608 55.8911 78.5805 56.6219 77.8915C57.0532 77.4849 57.5761 77.2083 59.0983 76.5817C64.6313 74.3037 70.7797 72.7148 76.7921 72.0091C80.3493 71.5916 81.684 71.5267 86.6342 71.5315C92.2976 71.5371 94.3234 71.6711 99.2826 72.3679L99.8409 72.4465L99.9205 71.6918C100.036 70.5991 100.015 9.84348 99.8991 9.66296C99.8135 9.52895 98.565 9.33964 95.3526 8.97317L94.6542 8.89351L94.6235 37.4927L94.5929 66.092L94.2892 66.0619C92.9673 65.9308 85.3122 65.901 83.718 66.0208C74.4671 66.716 65.9348 68.8605 58.7014 72.3086C57.74 72.7669 56.8983 73.1418 56.8309 73.1418C56.6649 73.1418 57.5144 72.512 59.052 71.495C64.0327 68.2009 69.8973 65.711 76.0023 64.2983C79.9434 63.3864 85.0234 62.7973 89.4289 62.7417L91.3122 62.7178L91.3428 31.5192L91.3735 0.320658L89.7633 0.405014C86.4985 0.576136 83.7533 0.903197 80.0121 1.56684C77.8592 1.94873 77.4713 2.03055 74.9695 2.63068C73.2336 3.04716 68.2063 4.60389 68.0288 4.77996C67.9522 4.85588 68.165 5.17546 68.6328 5.68738C69.03 6.12206 69.5859 6.78112 69.8681 7.15192C70.3851 7.83111 70.5559 7.92004 70.9452 7.71337C71.1593 7.59973 73.7672 6.83691 75.4555 6.39405C78.7851 5.5206 82.3139 4.91348 87.0898 4.3924L87.6062 4.336V31.6758V59.0154L85.9963 59.1001C72.5216 59.8091 59.55 64.9782 51.1417 72.9895C50.5668 73.5372 50.0538 73.9853 50.0017 73.9853C49.9497 73.9853 49.3534 73.4566 48.6769 72.8104C44.1421 68.4791 37.5325 64.618 30.6801 62.2976C25.2242 60.4501 20.0125 59.4619 13.7602 59.0894L12.3932 59.0079V31.6655V4.32311L12.9704 4.38625C18.8718 5.03134 22.6695 5.77391 27.545 7.23592C28.6275 7.56057 29.557 7.82557 29.6106 7.82472C29.6642 7.824 29.923 7.51634 30.1857 7.14108C30.4484 6.76594 31.012 6.09229 31.4382 5.64412C32.3435 4.69247 32.4215 4.80695 30.4371 4.17416C23.5551 1.9797 17.0281 0.766057 10.1757 0.406821L8.62651 0.325599V31.5519ZM52.8751 10.471C56.8199 11.4684 59.8735 14.4212 61.0701 18.3952C61.5265 19.9111 61.6073 22.2487 61.2576 23.8154C60.2405 28.3712 56.8141 31.7843 52.3372 32.7014C51.1345 32.9479 48.8711 32.9483 47.6556 32.7025C44.3744 32.039 41.3095 29.7017 39.7658 26.6858C38.8606 24.9172 38.5173 23.4781 38.5173 21.4512C38.5173 19.6296 38.876 18.1364 39.7217 16.4378C42.1372 11.586 47.5588 9.1267 52.8751 10.471ZM48.2986 15.8847C45.5028 16.6834 43.6289 19.5986 44.1064 22.4065C44.7737 26.3298 48.943 28.5095 52.5514 26.8216C54.3896 25.9617 55.6181 24.2803 55.9171 22.2152C56.038 21.3802 56.0289 21.1209 55.8542 20.4185C55.2835 18.1248 53.8523 16.5369 51.7792 15.8975C50.8137 15.5996 49.3155 15.5941 48.2986 15.8847ZM3.52843 87.3708C1.57301 87.715 0.612862 88.7105 0.176529 90.8463C-0.120799 92.3016 -0.0255371 96.1346 0.334975 97.2232C0.793179 98.6066 1.47228 99.3002 2.79416 99.7351C3.3469 99.9169 3.86172 99.9549 5.77109 99.9549C7.15967 99.9549 8.47924 99.889 9.08216 99.7896L10.0846 99.6243V96.1442V92.6642H7.77596H5.46732V93.809V94.9538H6.38276H7.29819L7.26368 96.2493L7.22918 97.5448L5.97036 97.5792C4.90243 97.6085 4.63342 97.5762 4.19551 97.3659C3.31458 96.9429 3.21944 96.573 3.21944 93.5712C3.21944 91.254 3.24021 91.0023 3.46245 90.6282C3.93767 89.828 4.22078 89.7165 5.89782 89.6693C7.25008 89.6312 8.55336 89.7323 9.69432 89.9638L10.0938 90.0449L10.0588 88.854L10.0238 87.6631L9.2948 87.5056C8.37876 87.3077 4.41349 87.215 3.52843 87.3708ZM26.6377 87.3752C25.401 87.5796 24.5119 88.1673 24.0323 89.0977C23.6883 89.765 23.4554 91.6231 23.4568 93.6885C23.4598 98.1637 24.1602 99.4281 26.8989 99.9011C28.0141 100.094 31.078 99.9884 31.9059 99.7291C33.1534 99.3383 33.8632 98.5914 34.2106 97.3037C34.4639 96.3649 34.5756 93.1137 34.4098 91.5003C34.0541 88.0384 32.9858 87.2219 28.8575 87.2562C27.9887 87.2636 26.9898 87.3171 26.6377 87.3752ZM65.5527 87.3254C64.6159 87.4486 63.8743 87.7532 63.3547 88.2281C62.628 88.8925 62.41 89.6304 62.4755 91.2045C62.5722 93.531 63.1883 93.9995 66.7007 94.4184C69.2811 94.7262 69.5149 94.888 69.5243 96.3723C69.53 97.2902 69.3482 97.7669 68.9183 97.9611C68.1313 98.3167 64.7444 98.3478 63.0864 98.0146L62.686 97.9341L62.7219 98.8241L62.758 99.7139L63.9123 99.8674C64.6145 99.961 65.852 100.003 67.0715 99.9742C70.3259 99.8982 71.0981 99.4728 71.5669 97.4982C71.7747 96.6226 71.6678 95.0301 71.3548 94.3414C70.8614 93.2557 70.0834 92.8646 68.0009 92.6554C64.7934 92.3332 64.6199 92.2535 64.5437 91.0654C64.4738 89.9786 64.6711 89.4403 65.2318 89.188C65.8099 88.9277 69.2286 88.9036 70.2069 89.1529C70.5613 89.2432 70.8725 89.2961 70.8984 89.2704C70.985 89.1846 71.0508 87.7489 70.9737 87.6253C70.7946 87.3379 67.0376 87.13 65.5527 87.3254ZM12.6363 93.6282V99.8947H17.132H21.6278V98.6896V97.4845H18.6509H15.6739V96.0987V94.7128H18.23H20.786L20.7512 93.5379L20.7165 92.3629L18.1952 92.3303L15.6739 92.2977V91.0349V89.772H18.5901H21.5063V88.5669V87.3618H17.0713H12.6363V93.6282ZM36.8446 92.2123C36.8936 97.4129 36.9264 97.709 37.5557 98.6198C38.2143 99.5729 39.1428 99.9093 41.3291 99.9866C43.9757 100.08 45.5977 99.575 46.1501 98.485C46.6724 97.4545 46.719 96.9272 46.719 92.0616V87.422L45.7166 87.3871L44.7142 87.352L44.7113 91.8459C44.7094 94.5069 44.6568 96.5608 44.5823 96.882C44.3381 97.9334 43.7582 98.2201 41.8674 98.2239C39.9007 98.2279 39.237 97.8629 39.005 96.6497C38.9361 96.2895 38.8818 94.1004 38.8818 91.6837V87.3618H37.8404H36.7991L36.8446 92.2123ZM49.8175 93.6282V99.8947H50.7881H51.7587L51.7905 95.3472L51.8224 90.7997L52.4243 91.762C52.7554 92.2913 53.7699 93.8361 54.6787 95.1948C55.5876 96.5536 56.6498 98.1669 57.0391 98.78L57.747 99.8947H58.7641H59.7811V93.6282V87.3618H58.809H57.837L57.8326 91.7302L57.8282 96.0987L57.53 95.7371C57.2083 95.3472 54.3159 91.0826 52.8098 88.7778L51.8846 87.3618H50.851H49.8175V93.6282ZM77.5212 87.4051C77.5212 87.4331 77.0526 88.7228 76.4801 90.271C75.9074 91.8193 74.9833 94.3332 74.4266 95.8576C73.8698 97.3821 73.3002 98.914 73.1609 99.262L72.9074 99.8947H73.9829H75.0583L75.6038 98.3582L76.1493 96.8217L78.8705 96.7915L81.5916 96.7612L82.1822 98.3279L82.7727 99.8947H83.8518H84.931L84.646 99.1415C84.4891 98.7273 84.0253 97.4935 83.6151 96.3999C83.2049 95.3063 82.2779 92.8389 81.5551 90.9168L80.2408 87.422L78.8809 87.3879C78.1331 87.3693 77.5212 87.3769 77.5212 87.4051ZM86.7557 93.6282V99.8947H87.7263H88.697L88.7287 95.1647L88.7606 90.4348L89.0483 91.2181C89.2065 91.6489 89.4306 92.2183 89.5461 92.4834C89.9631 93.4401 90.7725 95.4185 91.6414 97.605L92.5273 99.8344H93.3719H94.2164L94.4929 99.1716C94.6449 98.8071 95.4587 96.7735 96.3012 94.6526C97.1437 92.5316 97.8832 90.7448 97.9445 90.6818C98.0121 90.6123 98.0559 92.4004 98.0559 95.231V99.8947H99.0279H100V93.6243V87.3538L98.6341 87.3879L97.2683 87.422L95.3906 92.0917C94.3579 94.6601 93.4766 96.7614 93.4322 96.7614C93.3877 96.7614 92.874 95.5819 92.2905 94.1404C91.7071 92.6989 90.8404 90.5838 90.3646 89.4406L89.4993 87.3618H88.1275H86.7557V93.6282ZM79.8752 91.9414C80.3745 93.3 80.8204 94.5606 80.8664 94.7429L80.9497 95.0743H78.9388C77.8328 95.0743 76.9022 95.033 76.8707 94.9825C76.7815 94.8393 78.7719 89.2772 78.8756 89.3799C78.9261 89.4301 79.3761 90.5827 79.8752 91.9414ZM30.4329 89.8227C31.2231 90.1501 31.2876 90.4375 31.2876 93.6282C31.2876 97.4005 31.2481 97.4761 29.2261 97.5739C27.839 97.641 27.2666 97.4693 26.9196 96.882C26.687 96.4884 26.6703 96.2668 26.6703 93.568C26.6703 90.8982 26.6886 90.649 26.9075 90.3283C27.038 90.1372 27.3114 89.9089 27.5151 89.8209C28.0207 89.6024 29.9043 89.6036 30.4329 89.8227Z" fill="var(--fill-0, #00205B)"/>
</svg>
