<svg width="60" height="60" viewBox="0 0 60 60" fill="none" xmlns="http://www.w3.org/2000/svg">
<path fill-rule="evenodd" clip-rule="evenodd" d="M28.5418 0.0754049C24.9455 0.447198 21.4278 2.37225 19.3775 5.09049C18.4585 6.30876 17.7832 7.63295 17.3663 9.03401C16.9831 10.3219 16.8852 11.0225 16.8868 12.4685C16.8881 13.5934 16.9143 13.8929 17.0802 14.6753C17.4071 16.2177 18.0032 17.7444 18.8909 19.3133C19.1009 19.6845 19.7466 20.7366 20.3257 21.6512C22.0991 24.452 27.8683 33.6256 28.7609 35.0638C29.5964 36.4102 29.9835 37.0161 30.0083 37.0161C30.0456 37.0161 30.1917 36.7864 32.1699 33.6177C33.1506 32.0469 34.1483 30.4526 34.3871 30.0748C34.6258 29.697 35.0852 28.9649 35.408 28.4479C36.2661 27.0733 38.3664 23.7367 39.7318 21.5789C41.8218 18.276 42.5051 16.7808 42.9531 14.5292C43.1868 13.3545 43.1865 11.2959 42.9524 10.2119C42.0924 6.22937 39.7013 3.17737 36.0545 1.40755C33.6851 0.257614 31.1415 -0.193353 28.5418 0.0754049ZM5.17591 18.9311V37.6668L6.54286 37.6677C10.6356 37.6704 15.2739 38.5275 18.9548 39.9616C20.2367 40.4609 22.1553 41.4012 23.3291 42.1054C24.3824 42.7373 26.0535 43.8825 25.9998 43.9358C25.9843 43.9512 25.5164 43.7409 24.9602 43.4684C20.6802 41.3725 15.5805 40.0663 9.91469 39.6147C8.76338 39.523 5.59715 39.5157 4.17427 39.6016C3.57041 39.6379 3.27259 39.6309 3.25269 39.5794C3.23658 39.5377 3.21872 31.828 3.21303 22.4468C3.20742 13.0655 3.19327 5.38058 3.18168 5.36901C3.15995 5.34746 0.833357 5.60046 0.348179 5.6771C0.113718 5.71412 0.0712879 5.75099 0.0354189 5.94897C-0.0174367 6.24108 0.0225878 43.3535 0.0758809 43.4063C0.0977522 43.428 0.61151 43.3833 1.21756 43.307C3.78613 42.9837 4.89522 42.9199 7.98272 42.9181C10.9051 42.9163 11.6086 42.9506 13.8515 43.2037C17.1814 43.5797 20.8998 44.4955 23.7977 45.6535C25.4569 46.3165 25.6402 46.4089 26.1006 46.8144C26.8243 47.452 27.7932 47.7926 29.2782 47.9314C30.516 48.0472 31.7584 47.894 32.8025 47.4967C33.2763 47.3165 33.5347 47.1483 33.9731 46.7349C34.2319 46.4909 34.5456 46.325 35.459 45.949C38.7788 44.5822 42.4678 43.6289 46.0753 43.2055C48.2096 42.9549 49.0104 42.916 51.9805 42.9189C55.3786 42.9223 56.5941 43.0027 59.5696 43.4207L59.9046 43.4679L59.9523 43.0151C60.0214 42.3594 60.0089 5.90609 59.9395 5.79778C59.8881 5.71737 59.139 5.60378 57.2115 5.3839L56.7925 5.33611L56.7741 22.4956L56.7558 39.6552L56.5735 39.6371C55.7804 39.5585 51.1873 39.5406 50.2308 39.6125C44.6802 40.0296 39.5609 41.3163 35.2208 43.3852C34.644 43.6601 34.139 43.8851 34.0985 43.8851C33.9989 43.8851 34.5086 43.5072 35.4312 42.897C38.4196 40.9206 41.9384 39.4266 45.6014 38.579C47.966 38.0318 51.014 37.6784 53.6573 37.645L54.7873 37.6307L54.8057 18.9115L54.8241 0.192395L53.8579 0.243008C51.8991 0.345681 50.252 0.541918 48.0072 0.940102C46.7155 1.16924 46.4828 1.21833 44.9817 1.57841C43.9402 1.8283 40.9238 2.76234 40.8173 2.86797C40.7713 2.91353 40.899 3.10528 41.1797 3.41243C41.418 3.67323 41.7515 4.06867 41.9209 4.29115C42.2311 4.69867 42.3335 4.75203 42.5671 4.62802C42.6956 4.55984 44.2603 4.10215 45.2733 3.83643C47.271 3.31236 49.3883 2.94809 52.2539 2.63544L52.5637 2.6016V19.0055V35.4092L51.5978 35.4601C43.513 35.8854 35.73 38.9869 30.685 43.7937C30.3401 44.1223 30.0323 44.3912 30.001 44.3912C29.9698 44.3912 29.6121 44.0739 29.2061 43.6862C26.4853 41.0874 22.5195 38.7708 18.4081 37.3785C15.1345 36.27 12.0075 35.6771 8.25612 35.4536L7.43594 35.4048V18.9993V2.59386L7.78224 2.63175C11.3231 3.0188 13.6017 3.46435 16.527 4.34155C17.1765 4.53634 17.7342 4.69534 17.7663 4.69483C17.7985 4.6944 17.9538 4.50981 18.1114 4.28465C18.269 4.05956 18.6072 3.65538 18.8629 3.38647C19.4061 2.81548 19.4529 2.88417 18.2622 2.5045C14.1331 1.18782 10.2169 0.459634 6.10544 0.244093L5.17591 0.195359V18.9311ZM31.7251 6.28258C34.092 6.88105 35.9241 8.65274 36.6421 11.0371C36.9159 11.9467 36.9644 13.3492 36.7546 14.2892C36.1443 17.0227 34.0885 19.0706 31.4023 19.6208C30.6807 19.7687 29.3226 19.769 28.5934 19.6215C26.6247 19.2234 24.7857 17.821 23.8595 16.0115C23.3163 14.9503 23.1104 14.0868 23.1104 12.8707C23.1104 11.7778 23.3256 10.8818 23.833 9.8627C25.2823 6.95162 28.5353 5.47602 31.7251 6.28258ZM28.9792 9.53082C27.3017 10.0101 26.1773 11.7592 26.4638 13.4439C26.8642 15.7979 29.3658 17.1057 31.5308 16.0929C32.6337 15.577 33.3709 14.5682 33.5503 13.3291C33.6228 12.8281 33.6174 12.6725 33.5125 12.2511C33.1701 10.8749 32.3114 9.92213 31.0675 9.53848C30.4882 9.35974 29.5893 9.35649 28.9792 9.53082ZM2.11706 52.4225C0.943807 52.629 0.367717 53.2263 0.105918 54.5078C-0.0724794 55.3809 -0.0153222 57.6807 0.200985 58.3339C0.475907 59.1639 0.88337 59.5801 1.6765 59.8411C2.00814 59.9501 2.31703 59.973 3.46265 59.973C4.2958 59.973 5.08755 59.9334 5.4493 59.8737L6.05076 59.7745V57.6865V55.5985H4.66558H3.28039V56.2854V56.9723H3.82965H4.37892L4.35821 57.7496L4.33751 58.5269L3.58222 58.5475C2.94146 58.5651 2.78005 58.5457 2.5173 58.4196C1.98875 58.1658 1.93166 57.9438 1.93166 56.1427C1.93166 54.7524 1.94413 54.6014 2.07747 54.3769C2.3626 53.8968 2.53247 53.8299 3.53869 53.8016C4.35005 53.7787 5.13202 53.8394 5.81659 53.9783L6.0563 54.0269L6.0353 53.3124L6.01431 52.5978L5.57688 52.5033C5.02725 52.3846 2.64809 52.329 2.11706 52.4225ZM15.9826 52.4251C15.2406 52.5477 14.7071 52.9004 14.4194 53.4586C14.213 53.859 14.0732 54.9739 14.0741 56.2131C14.0759 58.8982 14.4961 59.6568 16.1393 59.9406C16.8085 60.0562 18.6468 59.9931 19.1435 59.8375C19.892 59.603 20.3179 59.1548 20.5264 58.3822C20.6784 57.8189 20.7454 55.8682 20.6459 54.9002C20.4325 52.8231 19.7915 52.3331 17.3145 52.3537C16.7932 52.3581 16.1939 52.3903 15.9826 52.4251ZM39.3316 52.3952C38.7695 52.4691 38.3246 52.6519 38.0128 52.9369C37.5768 53.3355 37.446 53.7782 37.4853 54.7227C37.5433 56.1186 37.913 56.3997 40.0204 56.651C41.5687 56.8357 41.7089 56.9328 41.7146 57.8234C41.718 58.3741 41.6089 58.6601 41.351 58.7767C40.8788 58.99 38.8466 59.0087 37.8519 58.8088L37.6116 58.7605L37.6332 59.2944L37.6548 59.8283L38.3474 59.9205C38.7687 59.9766 39.5112 60.0017 40.2429 59.9845C42.1955 59.9389 42.6589 59.6837 42.9402 58.4989C43.0648 57.9736 43.0007 57.0181 42.8129 56.6048C42.5169 55.9534 42.0501 55.7187 40.8006 55.5932C38.876 55.3999 38.7719 55.3521 38.7262 54.6392C38.6843 53.9872 38.8027 53.6642 39.1391 53.5128C39.4859 53.3566 41.5372 53.3421 42.1241 53.4917C42.3368 53.5459 42.5235 53.5776 42.539 53.5622C42.591 53.5108 42.6305 52.6493 42.5842 52.5752C42.4768 52.4028 40.2226 52.278 39.3316 52.3952ZM7.58175 56.1769V59.9368H10.2792H12.9767V59.2137V58.4907H11.1905H9.40436V57.6592V56.8277H10.938H12.4716L12.4507 56.1227L12.4299 55.4177L10.9171 55.3982L9.40436 55.3786V54.6209V53.8632H11.1541H12.9038V53.1401V52.4171H10.2428H7.58175V56.1769ZM22.1068 55.3274C22.1362 58.4478 22.1558 58.6254 22.5334 59.1719C22.9286 59.7438 23.4857 59.9456 24.7975 59.992C26.3854 60.0482 27.3586 59.745 27.6901 59.091C28.0034 58.4727 28.0314 58.1563 28.0314 55.237V52.4532L27.43 52.4323L26.8285 52.4112L26.8268 55.1075C26.8257 56.7041 26.7941 57.9365 26.7494 58.1292C26.6029 58.76 26.2549 58.932 25.1204 58.9344C23.9404 58.9367 23.5422 58.7177 23.403 57.9898C23.3617 57.7737 23.3291 56.4602 23.3291 55.0102V52.4171H22.7042H22.0794L22.1068 55.3274ZM29.8905 56.1769V59.9368H30.4728H31.0552L31.0743 57.2083L31.0934 54.4798L31.4546 55.0572C31.6532 55.3748 32.2619 56.3017 32.8072 57.1169C33.3526 57.9321 33.9899 58.9002 34.2235 59.268L34.6482 59.9368H35.2584H35.8686V56.1769V52.4171H35.2854H34.7022L34.6996 55.0381L34.6969 57.6592L34.518 57.4423C34.325 57.2083 32.5896 54.6496 31.6859 53.2667L31.1307 52.4171H30.5106H29.8905V56.1769ZM46.5127 52.443C46.5127 52.4599 46.2316 53.2337 45.888 54.1626C45.5444 55.0916 44.99 56.5999 44.656 57.5146C44.3219 58.4292 43.9801 59.3484 43.8965 59.5572L43.7444 59.9368H44.3897H45.035L45.3623 59.0149L45.6896 58.093L47.3223 58.0749L48.955 58.0567L49.3093 58.9968L49.6636 59.9368H50.3111H50.9586L50.7876 59.4849C50.6935 59.2364 50.4152 58.4961 50.1691 57.84C49.9229 57.1838 49.3667 55.7033 48.933 54.5501L48.1445 52.4532L47.3286 52.4328C46.8798 52.4216 46.5127 52.4261 46.5127 52.443ZM52.0534 56.1769V59.9368H52.6358H53.2182L53.2372 57.0988L53.2563 54.2608L53.429 54.7308C53.5239 54.9893 53.6583 55.331 53.7277 55.49C53.9779 56.0641 54.4635 57.2511 54.9848 58.563L55.5164 59.9007H56.0231H56.5298L56.6958 59.503C56.787 59.2843 57.2752 58.0641 57.7807 56.7915C58.2862 55.519 58.7299 54.4469 58.7667 54.4091C58.8073 54.3674 58.8335 55.4402 58.8335 57.1386V59.9368H59.4168H60V56.1745V52.4123L59.1805 52.4328L58.361 52.4532L57.2344 55.255C56.6148 56.7961 56.086 58.0569 56.0593 58.0569C56.0326 58.0569 55.7244 57.3491 55.3743 56.4842C55.0243 55.6193 54.5042 54.3503 54.2188 53.6643L53.6996 52.4171H52.8765H52.0534V56.1769ZM47.9251 55.1648C48.2247 55.98 48.4923 56.7364 48.5198 56.8458L48.5698 57.0446H47.3633C46.6997 57.0446 46.1413 57.0198 46.1224 56.9895C46.0689 56.9036 47.2632 53.5663 47.3254 53.628C47.3557 53.658 47.6256 54.3496 47.9251 55.1648ZM18.2598 53.8936C18.7339 54.0901 18.7726 54.2625 18.7726 56.1769C18.7726 58.4403 18.7489 58.4856 17.5357 58.5444C16.7034 58.5846 16.3599 58.4816 16.1517 58.1292C16.0122 57.893 16.0022 57.7601 16.0022 56.1408C16.0022 54.5389 16.0131 54.3894 16.1445 54.197C16.2228 54.0823 16.3868 53.9453 16.509 53.8925C16.8124 53.7614 17.9426 53.7622 18.2598 53.8936Z" fill="#00205B"/>
</svg>
